<svg width="38" height="38" viewBox="0 0 38 38" fill="none" xmlns="http://www.w3.org/2000/svg">
<path d="M19.0833 0.666687C22.1283 0.666687 24.5266 0.666687 26.45 0.841687C28.4133 1.01835 30.0433 1.38835 31.5 2.23002C33.2734 3.25394 34.746 4.72661 35.77 6.50002C36.6116 7.95669 36.9816 9.58669 37.1583 11.55C37.3333 13.4734 37.3333 15.8717 37.3333 18.9167V19.0834C37.3333 22.1284 37.3333 24.5267 37.1583 26.45C36.9816 28.4133 36.6116 30.0434 35.77 31.5C34.746 33.2734 33.2734 34.7461 31.5 35.77C30.0433 36.6117 28.4133 36.9817 26.45 37.1584C24.5266 37.3334 22.1283 37.3334 19.0833 37.3334H18.9166C15.8716 37.3334 13.4733 37.3334 11.55 37.1584C9.58663 36.9817 7.95663 36.6117 6.49996 35.77C4.72655 34.7461 3.25388 33.2734 2.22996 31.5C1.38829 30.0434 1.01829 28.4133 0.841626 26.45C0.666626 24.5267 0.666626 22.1284 0.666626 19.0834V18.9167C0.666626 15.8717 0.666626 13.4734 0.841626 11.55C1.01829 9.58669 1.38829 7.95669 2.22996 6.50002C3.25388 4.72661 4.72655 3.25394 6.49996 2.23002C7.95663 1.38835 9.58663 1.01835 11.55 0.841687C13.4733 0.666687 15.8716 0.666687 18.9166 0.666687H19.0833ZM29.4166 6.91669C28.9746 6.91669 28.5507 7.09228 28.2381 7.40484C27.9256 7.7174 27.75 8.14133 27.75 8.58335V8.59002C27.75 9.03205 27.9256 9.45597 28.2381 9.76853C28.5507 10.0811 28.9746 10.2567 29.4166 10.2567H29.4233C29.8653 10.2567 30.2892 10.0811 30.6018 9.76853C30.9144 9.45597 31.09 9.03205 31.09 8.59002V8.58335C31.09 8.14133 30.9144 7.7174 30.6018 7.40484C30.2892 7.09228 29.8653 6.91669 29.4233 6.91669H29.4166ZM19 9.00002C16.3478 9.00002 13.8043 10.0536 11.9289 11.929C10.0535 13.8043 8.99996 16.3479 8.99996 19C8.99996 21.6522 10.0535 24.1957 11.9289 26.0711C13.8043 27.9465 16.3478 29 19 29C21.6521 29 24.1957 27.9465 26.071 26.0711C27.9464 24.1957 29 21.6522 29 19C29 16.3479 27.9464 13.8043 26.071 11.929C24.1957 10.0536 21.6521 9.00002 19 9.00002Z" fill="#9747FF"/>
</svg>
