<svg width="36" height="36" viewBox="0 0 36 36" fill="none" xmlns="http://www.w3.org/2000/svg">
<path d="M18 0.5C8.33594 0.5 0.5 8.33594 0.5 18C0.5 27.6641 8.33594 35.5 18 35.5C27.6641 35.5 35.5 27.6641 35.5 18C35.5 8.33594 27.6641 0.5 18 0.5ZM21.6875 11.25H27.7109V13.0469H21.6875V11.25ZM18.6406 20.6875C18.6406 25.1406 14 25 14 25H6.40625V10.3906H14C16.3125 10.3906 18.1328 11.6641 18.1328 14.2812C18.1328 16.8984 15.9062 17.0625 15.9062 17.0625C18.8438 17.0625 18.6406 20.6875 18.6406 20.6875ZM29.9062 20.4453H22.3359C22.3359 23.1562 24.9062 22.9844 24.9062 22.9844C27.3359 22.9844 27.25 21.4141 27.25 21.4141H29.8203C29.8203 25.5859 24.8203 25.2969 24.8203 25.2969C18.8281 25.2969 19.2109 19.7109 19.2109 19.7109C19.2109 19.7109 19.2031 14.1016 24.8203 14.1016C30.7344 14.1094 29.9062 20.4453 29.9062 20.4453Z" fill="#9747FF"/>
</svg>
